<svg width="14" height="14" viewBox="0 0 14 14" fill="none" xmlns="http://www.w3.org/2000/svg"><g clip-path="url(#clip0_2589_9951)"><path d="M7 14C5.14348 14 3.36301 13.2625 2.05025 11.9497C0.737498 10.637 0 8.85652 0 7C0 5.14348 0.737498 3.36301 2.05025 2.05025C3.36301 0.737498 5.14348 0 7 0C8.85652 0 10.637 0.737498 11.9497 2.05025C13.2625 3.36301 14 5.14348 14 7C14 8.85652 13.2625 10.637 11.9497 11.9497C10.637 13.2625 8.85652 14 7 14ZM4.183 5.064L6.118 7L4.183 8.936C4.12409 8.99361 4.07719 9.06234 4.04502 9.1382C4.01285 9.21406 3.99605 9.29554 3.99559 9.37794C3.99513 9.46034 4.01101 9.54201 4.04234 9.61823C4.07366 9.69444 4.11978 9.76369 4.17805 9.82195C4.23631 9.88022 4.30556 9.92634 4.38177 9.95766C4.45799 9.98898 4.53966 10.0049 4.62206 10.0044C4.70446 10.004 4.78594 9.98715 4.8618 9.95498C4.93766 9.92281 5.00639 9.87591 5.064 9.817L7 7.882L8.936 9.817C9.05327 9.93168 9.21104 9.99548 9.37506 9.99457C9.53908 9.99365 9.69612 9.92809 9.8121 9.8121C9.92809 9.69612 9.99365 9.53908 9.99457 9.37506C9.99548 9.21104 9.93168 9.05327 9.817 8.936L7.882 7L9.817 5.064C9.87591 5.00639 9.92281 4.93766 9.95498 4.8618C9.98715 4.78594 10.004 4.70446 10.0044 4.62206C10.0049 4.53966 9.98898 4.45799 9.95766 4.38177C9.92634 4.30556 9.88022 4.23631 9.82195 4.17805C9.76369 4.11978 9.69444 4.07366 9.61823 4.04234C9.54201 4.01101 9.46034 3.99513 9.37794 3.99559C9.29554 3.99605 9.21406 4.01285 9.1382 4.04502C9.06234 4.07719 8.99361 4.12409 8.936 4.183L7 6.118L5.064 4.183C4.94673 4.06832 4.78896 4.00452 4.62494 4.00543C4.46092 4.00635 4.30388 4.07191 4.1879 4.1879C4.07191 4.30388 4.00635 4.46092 4.00543 4.62494C4.00452 4.78896 4.06832 4.94673 4.183 5.064Z" fill="#B1B1B1" fill-opacity="0.32"></path></g><defs><clipPath id="clip0_2589_9951"><rect width="14" height="14" fill="white"></rect></clipPath></defs></svg>