<svg t="1636091799776" class="icon" viewBox="0 0 1024 1024" version="1.1" xmlns="http://www.w3.org/2000/svg" p-id="5690" width="200" height="200"><path d="M992 128 32 128C14.336 128 0 142.336 0 160l0 704c0 17.696 14.336 32 32 32l960 0c17.696 0 32-14.304 32-32L1024 160C1024 142.336 1009.696 128 992 128zM960 800c0 17.696-14.304 32-32 32L96 832c-17.664 0-32-14.304-32-32L64 224c0-17.664 14.336-32 32-32l832 0c17.696 0 32 14.336 32 32L960 800zM303.936 388.512 180.576 265.12c-12-12-31.456-12-43.456 0s-12 31.456 0 43.456L244.576 416l-107.456 107.456c-12 12-12 31.424 0 43.424s31.456 12 43.456 0l123.36-123.36c2.432-1.344 4.896-2.56 6.944-4.608C317.184 432.608 320 424.256 319.648 416c0.32-8.256-2.464-16.608-8.768-22.88C308.832 391.072 306.368 389.856 303.936 388.512zM608 512l-192 0c-17.664 0-32 14.336-32 32 0 17.696 14.336 32 32 32l192 0c17.696 0 32-14.304 32-32C640 526.336 625.696 512 608 512z" p-id="5691"></path></svg>